Coordinates
version=1
nRows=26
nColumns=22
inDegrees=yes

Units are S.I. units (second, meters, Newtons, ...)
If the header above contains a line with 'inDegrees', this indicates whether rotational values are in degrees (yes) or radians (no).

endheader
time	pelvis_tilt	pelvis_list	pelvis_rotation	pelvis_tx	pelvis_ty	pelvis_tz	hip_flexion_r	hip_adduction_r	hip_rotation_r	knee_angle_r	ankle_angle_r	subtalar_angle_r	hip_flexion_l	hip_adduction_l	hip_rotation_l	knee_angle_l	ankle_angle_l	subtalar_angle_l	lumbar_extension	lumbar_bending	lumbar_rotation
      2.08000000	      0.82538601	      3.70364177	    183.53071960	      0.00431041	      0.93002760	      0.98782250	     31.31669835	    -10.97021490	    -44.08366485	    -23.20660237	      6.75360093	      0.80493881	    -12.45331280	     -9.68676352	      0.85838752	    -14.60909923	     22.38048835	      8.63959613	     -5.51208170	      8.49170679	    -20.37332287
      2.09000000	      1.02604740	      3.69113797	    183.30721298	     -0.00378215	      0.92927143	      0.98311715	     31.45931781	    -11.00243106	    -44.17780897	    -23.94829709	      6.06674763	      0.58295982	    -12.50608167	     -9.96356744	      0.91747993	    -15.13587271	     21.99838838	      9.57900508	     -5.37702312	      8.75571595	    -20.47468413
      2.10000000	      1.24284747	      3.70823150	    183.00548609	     -0.01197661	      0.92871383	      0.97811186	     31.62459500	    -10.96359748	    -44.25838259	    -24.74202221	      5.28220511	      0.36348700	    -12.53210987	    -10.26647781	      0.94948841	    -15.71264827	     21.52949569	     10.57217389	     -5.24679265	      9.05679868	    -20.54131695
      2.11000000	      1.53327566	      3.77633962	    182.61786648	     -0.02020767	      0.92827240	      0.97278443	     31.86985729	    -10.81971533	    -44.29042487	    -25.54197957	      4.46152604	      0.20318994	    -12.44317043	    -10.61158172	      0.98262637	    -16.38656788	     20.98948580	     11.50719829	     -5.06377024	      9.41242460	    -20.51647536
      2.12000000	      1.82074187	      3.84329231	    182.15630708	     -0.02851642	      0.92806800	      0.96722363	     32.10917991	    -10.62303875	    -44.24910563	    -26.33495203	      3.66139982	      0.06554839	    -12.35034986	    -10.94158143	      1.03541705	    -17.10109509	     20.34246494	     12.61310227	     -4.91114100	      9.78050298	    -20.47865540
      2.13000000	      2.17552627	      3.93442880	    181.60479065	     -0.03683922	      0.92796835	      0.96135866	     32.41867026	    -10.32790109	    -44.10557191	    -27.09717508	      2.95106963	      0.00807234	    -12.13960032	    -11.28416850	      1.06630757	    -17.92433387	     19.61692922	     13.63612729	     -4.71550489	     10.17334489	    -20.37536528
      2.14000000	      2.55852988	      4.02127864	    180.97615779	     -0.04519730	      0.92801763	      0.95523199	     32.74774278	     -9.95842964	    -43.86654187	    -27.81533173	      2.36493701	     -0.02500285	    -11.85916464	    -11.61039063	      1.09339455	    -18.83802978	     18.79774931	     14.66575649	     -4.51626175	     10.56132073	    -20.22484024
      2.15000000	      2.96534798	      4.08669519	    180.28425902	     -0.05358587	      0.92820773	      0.94887154	     33.08317235	     -9.52856833	    -43.54294092	    -28.47519315	      1.91949614	     -0.07695258	    -11.50158961	    -11.90355725	      1.12927129	    -19.85100312	     17.87177214	     15.66665658	     -4.31166976	     10.92223255	    -20.03718070
      2.16000000	      3.39087227	      4.11528205	    179.53827381	     -0.06201305	      0.92852555	      0.94229887	     33.41375673	     -9.05165851	    -43.14427910	    -29.06894552	      1.62124286	     -0.19067138	    -11.05989578	    -12.14913709	      1.17190291	    -20.97363971	     16.82476918	     16.59989777	     -4.09776741	     11.23553482	    -19.81406220
      2.17000000	      3.82382475	      4.09739463	    178.74536807	     -0.07047802	      0.92897403	      0.93552592	     33.72176422	     -8.53217588	    -42.67193969	    -29.58473499	      1.45211747	     -0.39714650	    -10.53250813	    -12.33854435	      1.21906426	    -22.21709777	     15.64781945	     17.45480004	     -3.87846004	     11.48698154	    -19.55738395
      2.18000000	      4.25449372	      4.02419444	    177.90894618	     -0.07897028	      0.92953966	      0.92855888	     34.00152320	     -7.98006021	    -42.12205098	    -30.02936549	      1.40296736	     -0.70464730	     -9.91435377	    -12.46592331	      1.25416093	    -23.59651114	     14.34196975	     18.18941616	     -3.65586708	     11.66736646	    -19.27732905
      2.19000000	      4.67295234	      3.89493961	    177.03196489	     -0.08748261	      0.93023020	      0.92141651	     34.23956377	     -7.39678573	    -41.49448525	    -30.39618460	      1.44314300	     -1.12082598	     -9.20473116	    -12.52954348	      1.28161282	    -25.12270370	     12.91776615	     18.81580985	     -3.43293372	     11.77765613	    -18.97680674
      2.20000000	      5.05596981	      3.72194780	    176.10227944	     -0.09597736	      0.93104010	      0.91408992	     34.41764991	     -6.76631160	    -40.76487273	    -30.69020607	      1.55387911	     -1.56331008	     -8.41663597	    -12.54737765	      1.24825960	    -26.81681048	     11.41821437	     19.23394175	     -3.23680084	     11.83374652	    -18.66881909
      2.21000000	      5.42005907	      3.48013304	    175.16424962	     -0.10446818	      0.93194215	      0.90667778	     34.55431396	     -6.16500054	    -40.01704146	    -30.94365411	      1.74307459	     -2.17767242	     -7.52812358	    -12.48463766	      1.27763926	    -28.65678312	      9.82303164	     19.58667212	     -3.02526579	     11.81689357	    -18.36949267
      2.22000000	      5.72175501	      3.21911486	    174.18434505	     -0.11288810	      0.93295341	      0.89911892	     34.60495646	     -5.51986632	    -39.19113690	    -31.14095982	      1.97558674	     -2.76604100	     -6.58279335	    -12.40316036	      1.24924863	    -30.66411084	      8.21438102	     19.69941323	     -2.86457666	     11.77457693	    -18.08966480
      2.23000000	      5.96928862	      2.94143497	    173.18329406	     -0.12123119	      0.93404745	      0.89146793	     34.57631075	     -4.85761189	    -38.32653209	    -31.29566940	      2.24872258	     -3.34471227	     -5.57651963	    -12.30320751	      1.20897979	    -32.81389964	      6.60772964	     19.59205853	     -2.74019868	     11.70864470	    -17.82977224
      2.24000000	      6.16160621	      2.66290701	    172.17830357	     -0.12947807	      0.93520478	      0.88374476	     34.46492694	     -4.18438144	    -37.45059546	    -31.42066264	      2.56898273	     -3.89334291	     -4.51675440	    -12.20017951	      1.18424614	    -35.07622675	      5.02904896	     19.23339585	     -2.65326289	     11.62698799	    -17.58185052
      2.25000000	      6.30569280	      2.40061861	    171.17382583	     -0.13761928	      0.93639995	      0.87596567	     34.27064285	     -3.49301452	    -36.57960963	    -31.50994177	      2.92880333	     -4.37828098	     -3.41250979	    -12.11216841	      1.17768076	    -37.41268892	      3.52467918	     18.59716534	     -2.59981244	     11.54081417	    -17.33654811
      2.26000000	      6.40665322	      2.17162366	    170.18260547	     -0.14564571	      0.93761079	      0.86813845	     33.99498862	     -2.78140584	    -35.73496327	    -31.56970670	      3.32683587	     -4.78592976	     -2.27279319	    -12.05540596	      1.21174510	    -39.78229379	      2.15080732	     17.68207564	     -2.57636316	     11.46200728	    -17.08953303
      2.27000000	      6.47314177	      1.98091051	    169.21414725	     -0.15354757	      0.93882314	      0.86027292	     33.63743612	     -2.05121984	    -34.93811956	    -31.58734854	      3.75782365	     -5.11989582	     -1.10020140	    -12.03558153	      1.29574861	    -42.14627809	      0.98197735	     16.51657915	     -2.57224556	     11.39300713	    -16.83979527
      2.28000000	      6.51622330	      1.83931117	    168.27133554	     -0.16131167	      0.94001200	      0.85235022	     33.20746892	     -1.29244741	    -34.19278905	    -31.56324617	      4.21625360	     -5.38856097	      0.10093384	    -12.06812723	      1.43410641	    -44.46776687	      0.09259901	     15.19930548	     -2.57977483	     11.34269574	    -16.59370483
      2.29000000	      6.54050212	      1.74849057	    167.35177680	     -0.16892743	      0.94117594	      0.84435779	     32.70570627	     -0.49891514	    -33.49631234	    -31.48772613	      4.69021872	     -5.60979587	      1.32083022	    -12.15653763	      1.62503284	    -46.71129717	     -0.46296408	     13.81944194	     -2.59634288	     11.31322156	    -16.34743063
      2.30000000	      6.55868507	      1.70353968	    166.45413927	     -0.17639054	      0.94230576	      0.83628824	     32.14219290	      0.33026742	    -32.84469601	    -31.35169063	      5.17119140	     -5.79754268	      2.56183286	    -12.29720991	      1.87316963	    -48.84640427	     -0.67284371	     12.46730662	     -2.60850527	     11.30280211	    -16.10033232
      2.31000000	      6.56221538	      1.69213738	    165.55933774	     -0.18370349	      0.94342359	      0.82812016	     31.51153196	      1.19267071	    -32.21109826	    -31.15263062	      5.64986960	     -5.96573967	      3.79312893	    -12.47123420	      2.16373933	    -50.83197822	     -0.57549259	     11.15998006	     -2.62694461	     11.29631992	    -15.83296251
      2.32000000	      6.56101929	      1.70375025	    164.66221659	     -0.19085389	      0.94451609	      0.81985775	     30.83276892	      2.07970692	    -31.58173976	    -30.90041838	      6.11240862	     -6.12007864	      5.02354581	    -12.67113543	      2.48724698	    -52.65388085	     -0.24906259	      9.95922749	     -2.64114197	     11.28864602	    -15.57232776
      2.33000000	      6.55042398	      1.71719475	    163.75070288	     -0.19786144	      0.94561280	      0.81150706	     30.10080651	      2.97837466	    -30.92778531	    -30.58292738	      6.54652898	     -6.26901687	      6.23018006	    -12.85787173	      2.85347559	    -54.27626757	      0.22178139	      8.85685072	     -2.65134197	     11.25968555	    -15.28949259
